<svg xmlns="http://www.w3.org/2000/svg" width="1024" height="1024"><path fill="#00D8FF" stroke="#00D8FF" d="M864 574.016v-96h64v96h-64zM864 352h64v96h-64v-96zm0-128h64v96h-64v-96zm-96 704H192c-35.328 0-64-28.672-64-64h16c26.496 0 48-21.504 48-48s-21.504-48-48-48h-16v-32h16c26.496 0 48-21.504 48-48s-21.504-48-48-48h-16v-32h16c26.496 0 48-21.504 48-48s-21.504-48-48-48h-16v-32h16c26.496 0 48-21.504 48-48s-21.504-48-48-48h-16v-32h16c26.496 0 48-21.504 48-48s-21.504-48-48-48h-16v-96c0-35.328 28.672-64 64-64h576c23.616 0 44.032 12.928 55.136 32H192c-17.696 0-32 14.304-32 32 0 17.664 14.304 32 32 32h640v672c0 35.328-28.672 64-64 64zM496 305.984c-38.656 0-70.016 41.184-70.016 92s31.328 92 70.016 92 70.016-41.184 70.016-92-31.36-92-70.016-92zm111.68 228.032c-17.248-11.488-66.912-19.136-66.912-19.136s-32.192 34.4-45.856 34.4c-13.696 0-45.888-34.4-45.888-34.4s-49.664 7.616-66.88 19.136c-17.248 11.456-24.864 72.352-24.864 72.352h275.68c.032-.032-5.024-58.88-25.28-72.352zM160 304c0 8.832-7.168 16-16 16h-32c-8.832 0-16-7.168-16-16s7.168-16 16-16h32c8.832 0 16 7.168 16 16zm-48 112h32c8.832 0 16 7.168 16 16s-7.168 16-16 16h-32c-8.832 0-16-7.168-16-16s7.168-16 16-16zm0 128h32c8.832 0 16 7.168 16 16s-7.168 16-16 16h-32c-8.832 0-16-7.168-16-16s7.168-16 16-16zm0 128h32c8.832 0 16 7.168 16 16s-7.168 16-16 16h-32c-8.832 0-16-7.168-16-16s7.168-16 16-16zm0 128h32c8.832 0 16 7.168 16 16s-7.168 16-16 16h-32c-8.832 0-16-7.168-16-16s7.168-16 16-16z"/></svg>